<svg width="32" height="32" xmlns="http://www.w3.org/2000/svg">

 <g>
  <title>background</title>
  <rect fill="#1b472c" id="canvas_background" height="34" width="34" y="-1" x="-1"/>
 </g>
 <g>
  <title>Layer 1</title>
  <path stroke-miterlimit="10" stroke-linejoin="round" stroke-linecap="round" stroke-width="2" stroke="#eeeeee" fill="none" id="svg_1" d="m18,29l-10,0c-2.2,0 -4,-1.8 -4,-4l0,-18c0,-2.2 1.8,-4 4,-4l10,0c2.2,0 4,1.8 4,4l0,18c0,2.2 -1.8,4 -4,4z" class="st0"/>
  <path stroke-miterlimit="10" stroke-linejoin="round" stroke-linecap="round" stroke-width="2" stroke="#eeeeee" fill="none" id="svg_2" d="m22,6.4l5,3c1.9,1.1 2.5,3.6 1.3,5.5l-6.3,10.6" class="st0"/>
  <path stroke-miterlimit="10" stroke-linejoin="round" stroke-linecap="round" stroke-width="2" stroke="#eeeeee" fill="none" id="svg_3" d="m28,16l0.5,0.7c1.3,1.8 0.8,4.3 -1,5.6l-5.7,4" class="st0"/>
  <line stroke-miterlimit="10" stroke-linejoin="round" stroke-linecap="round" stroke-width="2" stroke="#eeeeee" fill="none" id="svg_4" y2="9" y1="7" x2="8" x1="8" class="st0"/>
  <line stroke-miterlimit="10" stroke-linejoin="round" stroke-linecap="round" stroke-width="2" stroke="#eeeeee" fill="none" id="svg_5" y2="25" y1="23" x2="18" x1="18" class="st0"/>
  <path stroke-miterlimit="10" stroke-linejoin="round" stroke-linecap="round" stroke-width="2" stroke="#eeeeee" fill="none" id="svg_6" d="m10.4,16.6c0.5,0.5 1.3,0.5 1.8,0l0.8,-0.8l0.8,0.8c0.5,0.5 1.3,0.5 1.8,0c0.5,-0.5 0.5,-1.4 0,-1.9l-0.8,-0.8l-1.8,-1.9l-1.8,1.9l-0.8,0.8c-0.5,0.5 -0.5,1.4 0,1.9z" class="st0"/>
  <line stroke-miterlimit="10" stroke-linejoin="round" stroke-linecap="round" stroke-width="2" stroke="#eeeeee" fill="none" id="svg_7" y2="20" y1="20" x2="14" x1="12" class="st0"/>
  <line stroke-miterlimit="10" stroke-linejoin="round" stroke-linecap="round" stroke-width="2" stroke="#eeeeee" fill="none" id="svg_8" y2="19" y1="17" x2="13" x1="13" class="st0"/>
 </g>
</svg>